<?xml version="1.0" encoding="utf-8"?>
<!-- Generator: Adobe Illustrator 25.0.0, SVG Export Plug-In . SVG Version: 6.00 Build 0)  -->
<svg version="1.1" xmlns="http://www.w3.org/2000/svg" xmlns:xlink="http://www.w3.org/1999/xlink" x="0px" y="0px"
	 viewBox="0 0 2000 2000" style="enable-background:new 0 0 2000 2000;" xml:space="preserve">
<style type="text/css">
	.st0{fill:#FAFF00;}
	.st1{fill:#FFFFFF;}
	.st2{fill:none;}
</style>
<g id="Layer_1">
	<g>
		<path d="M749.99,1035.51c-102.4,0-110.54-69.25-110.54-159.78c0-85.19,8.03-150.37,109.09-150.37c34.47,0,61.13,5.18,86.44,16.8
			l13.7,6.29l-12.18,145.59l-2.32-1.47l12.78,123.91l-16.13,5.55C807.19,1030.17,788.79,1035.51,749.99,1035.51z M785.53,904.04
			c0.01,0,1.02,0.53,3.93,0.53c7.47,0,10.68-0.79,18.6-3.73l24.72-9.16l-26.23-16.63c-13.51-8.57-16.89-8.97-22.16-8.97
			c-0.23,0-0.44,0-0.63,0.01c-0.62,2.45-1.42,7.68-1.42,18.33C782.33,900.77,785.47,903.98,785.53,904.04L785.53,904.04z"/>
		<path d="M938.51,1033.7c-49.71,0-82.36-3.93-102.15-24.02c-19.65-19.94-20.83-50.75-20.33-83.23l2.46-204.17l97.75,11.82
			l-0.01-3.07l129.68-5.94l2.07,175c0.42,51.62-9.32,85.65-30.66,107.16C993.8,1030.96,961.08,1033.7,938.51,1033.7z"/>
		<polygon points="1050.93,1025.13 1056.78,853.28 1017.9,846.79 1020.61,725.43 1227.27,731.82 1226.16,860.67 1189.53,857.07 
			1190.25,1036.21 		"/>
		<polygon points="1200.82,1028.69 1198.72,731.86 1394.71,725.39 1398.11,843.78 1383.27,844.43 1386.5,911.49 1393.62,911.89 
			1393.06,1034.75 		"/>
		<path d="M284.47,1336.76c-102.4,0-110.54-69.25-110.54-159.78c0-85.19,8.03-150.37,109.09-150.37c34.47,0,61.13,5.18,86.44,16.8
			l13.7,6.29l-12.18,145.59l-2.32-1.47l12.78,123.91l-16.13,5.55C341.67,1331.42,323.27,1336.76,284.47,1336.76z M320.01,1205.29
			c0.01,0,1.02,0.53,3.93,0.53c7.47,0,10.68-0.79,18.6-3.73l24.72-9.16l-26.23-16.63c-13.51-8.57-16.89-8.97-22.16-8.97
			c-0.23,0-0.44,0-0.63,0.01c-0.62,2.45-1.42,7.68-1.42,18.33C316.81,1202.03,319.95,1205.23,320.01,1205.29L320.01,1205.29z"/>
		<path d="M352.65,1330.92l0.42-297.09l134.79-2.14l2.56-0.02c80.22,0,89.5,58.14,89.5,101.87c0,26.53-7.23,51.03-21.51,72.98
			l39.07,115.15l-116.77,13.23l-0.11,5.23L352.65,1330.92z"/>
		<polygon points="557.64,1329.94 555.54,1033.11 751.52,1026.64 754.93,1145.04 740.08,1145.68 743.32,1212.75 750.43,1213.14 
			749.88,1336 		"/>
		<polygon points="830.65,1334.68 720.25,1326.76 757.31,1025.6 905.99,1033.33 956.41,1329.61 831.67,1346.46 		"/>
		<polygon points="929.15,1326.38 935,1154.53 896.12,1148.05 898.83,1026.68 1105.49,1033.07 1104.38,1161.92 1067.75,1158.33 
			1068.48,1337.46 		"/>
		<path d="M1197.41,1334.95c-49.71,0-82.37-3.93-102.16-24.03c-19.64-19.94-20.82-50.75-20.33-83.22l2.46-204.17l97.75,11.82
			l-0.01-3.07l129.67-5.94l2.08,175c0.42,51.63-9.33,85.65-30.66,107.16C1252.69,1332.21,1219.97,1334.95,1197.41,1334.95z"/>
		<path d="M1280.06,1330.92l0.42-297.09l134.79-2.14l2.56-0.02c80.23,0,89.5,58.14,89.5,101.87c0,26.53-7.23,51.02-21.51,72.98
			l39.08,115.15l-116.78,13.23l-0.11,5.23L1280.06,1330.92z"/>
		<polygon points="1485.06,1329.94 1482.96,1033.11 1678.95,1026.64 1682.34,1145.04 1667.51,1145.67 1670.73,1212.75 
			1677.85,1213.14 1677.3,1336 		"/>
		<path d="M1753.93,1335.68c-28.51,0-68.61-6.47-93.92-20.93l-11.48-6.56l6.47-125.25l1.9,1.09c-4.13-14.05-5.91-30.88-5.91-51.21
			c0-89.38,35.18-105.11,109.09-105.11c33.27,0,63.46,5.55,89.73,16.5l14.93,6.22l-14.52,125.79c6.55,14.33,9.18,32.38,9.18,55.79
			C1859.41,1309.52,1832.79,1335.68,1753.93,1335.68z"/>
		<g>
			<path d="M818.05,856.9c-14.84-9.41-22.44-12.31-33.67-12.31c-18.47,0-23.54,10.86-23.54,39.82c0,24.26,5.79,41.63,28.6,41.63
				c10.5,0,16.29-1.45,26.07-5.07l8.33,80.73c-22.09,7.6-38.38,12.31-73.86,12.31c-77.47,0-89.06-40.55-89.06-138.29
				c0-97.38,14.12-128.88,87.61-128.88c31.5,0,55.39,4.7,77.47,14.84L818.05,856.9z"/>
			<path d="M938.51,1012.21c-91.23,0-102.09-14.12-101-85.44l2.17-180.29l89.78,10.86l-2.17,169.07c0,12.67,1.09,17.02,5.43,17.02
				c4.35,0,5.79-3.62,5.79-17.74l-0.72-174.14l86.89-3.98l1.81,152.77C1027.22,989.77,995.72,1012.21,938.51,1012.21z"/>
			<path d="M1204.88,836.99l-36.93-3.62l0.73,179.57l-95.58-7.6l5.79-170.15l-39.1-6.52l1.81-81.09l164,5.07L1204.88,836.99z"/>
			<path d="M1308.69,826.13l1.44,22.81l51.41-9.05l3.26,67.7l-50.68,5.79l-0.73,15.57l58.65,3.26l-0.36,80.37l-149.52-4.71
				l-1.81-255.23l153.5-5.07l2.17,75.66L1308.69,826.13z"/>
		</g>
	</g>
	<path d="M711.32,966.76c-102.4,0-110.54-69.25-110.54-159.78c0-85.19,8.03-150.37,109.09-150.37c34.47,0,61.13,5.18,86.44,16.8
		l13.7,6.29l-12.18,145.59l-2.32-1.47l12.78,123.91l-16.13,5.55C768.52,961.42,750.12,966.76,711.32,966.76z M746.86,835.29
		c0.01,0,1.02,0.53,3.93,0.53c7.47,0,10.68-0.79,18.6-3.73l24.72-9.16l-26.23-16.63c-13.51-8.57-16.89-8.97-22.16-8.97
		c-0.23,0-0.44,0-0.63,0.01c-0.62,2.45-1.42,7.68-1.42,18.33C743.66,832.03,746.8,835.23,746.86,835.29L746.86,835.29z"/>
	<path d="M899.84,964.95c-49.71,0-82.36-3.93-102.15-24.02c-19.65-19.94-20.83-50.75-20.33-83.23l2.46-204.17l97.75,11.82
		l-0.01-3.07l129.68-5.94l2.07,175c0.42,51.62-9.32,85.65-30.66,107.16C955.13,962.21,922.41,964.95,899.84,964.95z"/>
	<polygon points="1012.26,956.38 1018.11,784.53 979.23,778.05 981.94,656.68 1188.6,663.07 1187.49,791.92 1150.86,788.33 
		1151.58,967.46 	"/>
	<polygon points="1162.15,959.95 1160.05,663.11 1356.04,656.64 1359.44,775.04 1344.6,775.68 1347.83,842.75 1354.95,843.14 
		1354.39,966 	"/>
	<path d="M245.8,1268.01c-102.4,0-110.54-69.25-110.54-159.78c0-85.19,8.03-150.37,109.09-150.37c34.47,0,61.13,5.18,86.44,16.8
		l13.7,6.29l-12.18,145.59l-2.32-1.47l12.78,123.91l-16.13,5.55C303,1262.67,284.6,1268.01,245.8,1268.01z M281.34,1136.54
		c0.01,0,1.02,0.53,3.93,0.53c7.47,0,10.68-0.79,18.6-3.73l24.72-9.16l-26.23-16.63c-13.51-8.57-16.89-8.97-22.16-8.97
		c-0.23,0-0.44,0-0.63,0.01c-0.62,2.45-1.42,7.68-1.42,18.33C278.14,1133.28,281.28,1136.49,281.34,1136.54L281.34,1136.54z"/>
	<path d="M313.98,1262.18l0.42-297.09l134.79-2.14l2.56-0.02c80.22,0,89.5,58.14,89.5,101.87c0,26.53-7.23,51.03-21.51,72.98
		l39.07,115.15l-116.77,13.23l-0.11,5.23L313.98,1262.18z"/>
	<polygon points="518.97,1261.2 516.87,964.36 712.85,957.89 716.26,1076.29 701.41,1076.93 704.65,1144 711.76,1144.4 
		711.21,1267.25 	"/>
	<polygon points="791.98,1265.93 681.58,1258.01 718.64,956.86 867.32,964.59 917.74,1260.86 793,1277.72 	"/>
	<polygon points="890.48,1257.63 896.33,1085.78 857.45,1079.3 860.16,957.94 1066.82,964.32 1065.71,1093.17 1029.08,1089.58 
		1029.81,1268.71 	"/>
	<path d="M1158.74,1266.2c-49.71,0-82.37-3.93-102.16-24.03c-19.64-19.94-20.82-50.75-20.33-83.22l2.46-204.17l97.75,11.82
		l-0.01-3.07l129.67-5.94l2.08,175c0.42,51.63-9.33,85.65-30.66,107.16C1214.02,1263.46,1181.3,1266.2,1158.74,1266.2z"/>
	<path d="M1241.4,1262.18l0.42-297.09l134.79-2.14l2.56-0.02c80.23,0,89.5,58.14,89.5,101.87c0,26.53-7.23,51.02-21.51,72.98
		l39.08,115.15l-116.78,13.23l-0.11,5.23L1241.4,1262.18z"/>
	<polygon points="1446.39,1261.2 1444.29,964.36 1640.28,957.89 1643.67,1076.29 1628.84,1076.93 1632.06,1144 1639.18,1144.4 
		1638.63,1267.25 	"/>
	<path d="M1715.26,1266.93c-28.51,0-68.61-6.47-93.92-20.93l-11.48-6.56l6.47-125.25l1.9,1.09c-4.13-14.05-5.91-30.88-5.91-51.21
		c0-89.38,35.18-105.11,109.09-105.11c33.27,0,63.46,5.55,89.73,16.5l14.93,6.22l-14.52,125.79c6.55,14.33,9.18,32.38,9.18,55.79
		C1820.74,1240.77,1794.12,1266.93,1715.26,1266.93z"/>
	<g>
		<path class="st0" d="M779.38,788.15c-14.84-9.41-22.44-12.31-33.67-12.31c-18.47,0-23.54,10.86-23.54,39.82
			c0,24.26,5.79,41.63,28.6,41.63c10.5,0,16.29-1.45,26.07-5.07l8.33,80.73c-22.09,7.6-38.38,12.31-73.86,12.31
			c-77.47,0-89.06-40.55-89.06-138.29c0-97.38,14.12-128.88,87.61-128.88c31.5,0,55.39,4.7,77.47,14.84L779.38,788.15z"/>
		<path class="st0" d="M899.84,943.47c-91.23,0-102.09-14.12-101-85.44l2.17-180.29l89.78,10.86l-2.17,169.07
			c0,12.67,1.09,17.02,5.43,17.02c4.35,0,5.79-3.62,5.79-17.74l-0.72-174.14l86.89-3.98l1.81,152.77
			C988.55,921.02,957.05,943.47,899.84,943.47z"/>
		<path class="st0" d="M1166.21,768.25l-36.93-3.62l0.73,179.57l-95.58-7.6l5.79-170.15l-39.1-6.52l1.81-81.09l164,5.07
			L1166.21,768.25z"/>
		<path class="st0" d="M1270.02,757.38l1.44,22.81l51.41-9.05l3.26,67.7l-50.68,5.79l-0.73,15.57l58.65,3.26l-0.36,80.37
			l-149.52-4.71l-1.81-255.23l153.5-5.07l2.17,75.66L1270.02,757.38z"/>
	</g>
	<g>
		<path class="st0" d="M313.86,1089.41c-14.84-9.41-22.44-12.31-33.67-12.31c-18.47,0-23.54,10.86-23.54,39.82
			c0,24.26,5.79,41.63,28.6,41.63c10.5,0,16.29-1.45,26.07-5.07l8.33,80.73c-22.09,7.6-38.38,12.31-73.86,12.31
			c-77.47,0-89.06-40.55-89.06-138.29c0-97.38,14.12-128.88,87.61-128.88c31.5,0,55.39,4.7,77.47,14.84L313.86,1089.41z"/>
		<path class="st0" d="M437.22,1245.09l-14.48-80.73l-1.81,83.99l-85.44-6.16l0.37-255.96l113.68-1.81
			c53.58-0.73,70.23,24.62,70.23,80.37c0,27.51-9.05,50.32-23.89,69.51l34.03,100.28L437.22,1245.09z M422.38,1046.33l0.37,57.56
			c8.69-1.81,12.67-6.16,12.67-31.49C435.41,1052.84,431.43,1047.05,422.38,1046.33z"/>
		<path class="st0" d="M626.84,1058.63l1.44,22.81l51.41-9.05l3.26,67.7l-50.68,5.79l-0.73,15.57l58.65,3.26l-0.36,80.37
			l-149.52-4.71l-1.81-255.23l153.5-5.07l2.17,75.66L626.84,1058.63z"/>
		<path class="st0" d="M812.46,1253.41l-3.26-37.65l-25.34,3.63l-2.53,24.25l-75.67-5.43l31.86-258.85l111.51,5.79l43.81,257.4
			L812.46,1253.41z M797.98,1093.75l-7.96,71.68l14.12-2.9L797.98,1093.75z"/>
		<path class="st0" d="M1044.43,1069.5l-36.93-3.62l0.73,179.57l-95.58-7.6l5.79-170.15l-39.1-6.52l1.81-81.09l164,5.07
			L1044.43,1069.5z"/>
		<path class="st0" d="M1158.74,1244.72c-91.23,0-102.1-14.12-101.01-85.44l2.17-180.29l89.78,10.86l-2.17,169.07
			c0,12.67,1.09,17.02,5.43,17.02c4.34,0,5.79-3.62,5.79-17.74l-0.73-174.14l86.89-3.98l1.81,152.77
			C1247.43,1222.28,1215.94,1244.72,1158.74,1244.72z"/>
		<path class="st0" d="M1364.64,1245.09l-14.48-80.73l-1.81,83.99l-85.44-6.16l0.36-255.96l113.68-1.81
			c53.58-0.73,70.24,24.62,70.24,80.37c0,27.51-9.05,50.32-23.9,69.51l34.03,100.28L1364.64,1245.09z M1349.8,1046.33l0.36,57.56
			c8.69-1.81,12.67-6.16,12.67-31.49C1362.83,1052.84,1358.85,1047.05,1349.8,1046.33z"/>
		<path class="st0" d="M1554.25,1058.63l1.45,22.81l51.41-9.05l3.26,67.7l-50.68,5.79l-0.73,15.57l58.65,3.26l-0.36,80.37
			l-149.52-4.71l-1.81-255.23l153.5-5.07l2.17,75.66L1554.25,1058.63z"/>
		<path class="st0" d="M1793.1,1080c-21.36-9.77-47.79-16.29-66.98-16.29c-11.22,0-13.39,1.09-13.39,5.43
			c0,4.34,1.81,5.43,21.72,10.86c52.13,14.48,64.81,30.41,64.81,83.27c0,64.8-15.57,82.18-83.99,82.18
			c-27.52,0-62.99-6.52-83.27-18.1l3.98-77.11c22.08,12.67,54.66,23.53,77.11,23.53c5.07,0,6.16-1.81,6.16-5.79
			c0-5.07-2.53-6.16-12.67-8.69c-57.56-14.48-72.77-33.31-72.77-95.21c0-70.6,18.47-83.63,87.61-83.63
			c32.59,0,59.74,5.79,81.46,14.85L1793.1,1080z"/>
	</g>
	<g>
		<g>
			<path d="M750.25,1035.47c-102.3,0-110.43-69.18-110.43-159.61c0-85.11,8.02-150.21,108.98-150.21c34.43,0,61.06,5.18,86.35,16.78
				l13.69,6.28l-12.16,145.44l-2.32-1.47l12.77,123.78l-16.11,5.55C807.39,1030.14,789,1035.47,750.25,1035.47z M785.75,904.14
				c0.01,0,1.01,0.53,3.92,0.53c7.47,0,10.67-0.79,18.58-3.73l24.7-9.15l-26.2-16.62c-13.5-8.56-16.87-8.96-22.14-8.96
				c-0.23,0-0.44,0-0.63,0.01c-0.62,2.45-1.42,7.67-1.42,18.31C782.56,900.88,785.69,904.08,785.75,904.14L785.75,904.14z"/>
			<path d="M938.58,1033.66c-49.66,0-82.28-3.93-102.05-24c-19.63-19.92-20.81-50.7-20.31-83.14l2.46-203.96l97.65,11.81l-0.01-3.07
				l129.54-5.93l2.07,174.82c0.42,51.57-9.31,85.56-30.63,107.05C993.8,1030.93,961.12,1033.66,938.58,1033.66z"/>
			<polygon points="1050.88,1025.1 1056.72,853.43 1017.88,846.95 1020.59,725.71 1227.03,732.09 1225.93,860.81 1189.34,857.22 
				1190.06,1036.17 			"/>
			<polygon points="1200.62,1028.66 1198.52,732.13 1394.3,725.67 1397.7,843.94 1382.88,844.59 1386.1,911.59 1393.21,911.98 
				1392.66,1034.71 			"/>
			<path d="M285.2,1336.41c-102.3,0-110.43-69.18-110.43-159.61c0-85.11,8.02-150.21,108.98-150.21c34.43,0,61.06,5.18,86.35,16.78
				l13.69,6.28l-12.16,145.44l-2.32-1.47l12.77,123.78l-16.11,5.55C342.34,1331.08,323.96,1336.41,285.2,1336.41z M320.7,1205.08
				c0.01,0,1.01,0.53,3.92,0.53c7.47,0,10.67-0.79,18.58-3.73l24.7-9.15l-26.2-16.62c-13.5-8.56-16.87-8.96-22.14-8.96
				c-0.23,0-0.44,0-0.63,0.01c-0.62,2.45-1.42,7.67-1.42,18.31C317.51,1201.82,320.64,1205.02,320.7,1205.08L320.7,1205.08z"/>
			<path d="M353.31,1330.58l0.42-296.79l134.65-2.14l2.55-0.02c80.14,0,89.41,58.08,89.41,101.77c0,26.5-7.22,50.97-21.49,72.91
				l39.03,115.04l-116.65,13.22l-0.11,5.23L353.31,1330.58z"/>
			<polygon points="558.09,1329.61 555.99,1033.08 751.78,1026.61 755.18,1144.89 740.35,1145.53 743.58,1212.53 750.69,1212.92 
				750.13,1335.65 			"/>
			<polygon points="830.82,1334.34 720.53,1326.42 757.56,1025.58 906.09,1033.3 956.46,1329.27 831.84,1346.11 			"/>
			<polygon points="929.22,1326.04 935.07,1154.37 896.23,1147.89 898.93,1026.65 1105.38,1033.03 1104.28,1161.75 1067.68,1158.16 
				1068.41,1337.11 			"/>
			<path d="M1197.21,1334.61c-49.66,0-82.28-3.93-102.05-24c-19.62-19.92-20.8-50.69-20.31-83.14l2.46-203.96l97.65,11.81
				l-0.01-3.07l129.54-5.93l2.07,174.82c0.41,51.57-9.32,85.56-30.63,107.05C1252.43,1331.87,1219.75,1334.61,1197.21,1334.61z"/>
			<path d="M1279.78,1330.58l0.42-296.79l134.65-2.14l2.55-0.02c80.14,0,89.41,58.08,89.41,101.77c0,26.5-7.22,50.97-21.49,72.91
				l39.04,115.04l-116.66,13.22l-0.11,5.23L1279.78,1330.58z"/>
			<polygon points="1484.57,1329.61 1482.46,1033.08 1678.25,1026.61 1681.64,1144.89 1666.82,1145.53 1670.05,1212.53 
				1677.16,1212.92 1676.61,1335.65 			"/>
			<path d="M1753.16,1335.33c-28.48,0-68.54-6.46-93.83-20.91l-11.47-6.55l6.46-125.12l1.9,1.09c-4.12-14.04-5.9-30.85-5.9-51.16
				c0-89.29,35.14-105.01,108.98-105.01c33.24,0,63.4,5.55,89.63,16.48l14.91,6.22l-14.5,125.67c6.54,14.31,9.18,32.34,9.18,55.74
				C1858.53,1309.2,1831.94,1335.33,1753.16,1335.33z"/>
			<g>
				<path d="M818.24,857.05c-14.83-9.4-22.42-12.29-33.63-12.29c-18.45,0-23.51,10.85-23.51,39.78c0,24.23,5.79,41.59,28.57,41.59
					c10.49,0,16.28-1.45,26.04-5.06l8.32,80.65c-22.06,7.6-38.34,12.29-73.78,12.29c-77.39,0-88.97-40.5-88.97-138.15
					c0-97.28,14.1-128.75,87.52-128.75c31.47,0,55.33,4.7,77.39,14.83L818.24,857.05z"/>
				<path d="M938.58,1012.2c-91.13,0-101.98-14.1-100.9-85.35l2.17-180.11l89.69,10.85l-2.17,168.89c0,12.66,1.09,17,5.42,17
					c4.34,0,5.78-3.62,5.78-17.72l-0.72-173.96l86.8-3.97l1.81,152.62C1027.19,989.78,995.72,1012.2,938.58,1012.2z"/>
				<path d="M1204.67,837.16l-36.89-3.62l0.73,179.39l-95.48-7.6l5.79-169.98l-39.06-6.51l1.81-81.01l163.83,5.06L1204.67,837.16z"
					/>
				<path d="M1308.37,826.31l1.44,22.79l51.36-9.04l3.26,67.63l-50.63,5.78l-0.73,15.55l58.59,3.26l-0.36,80.29l-149.37-4.7
					l-1.81-254.97l153.34-5.06l2.17,75.58L1308.37,826.31z"/>
			</g>
		</g>
		<path d="M711.62,966.79c-102.3,0-110.43-69.18-110.43-159.61c0-85.11,8.02-150.21,108.98-150.21c34.43,0,61.06,5.18,86.35,16.78
			l13.69,6.28l-12.16,145.44l-2.32-1.47l12.77,123.78l-16.11,5.55C768.76,961.46,750.37,966.79,711.62,966.79z M747.12,835.46
			c0.01,0,1.01,0.53,3.92,0.53c7.47,0,10.67-0.79,18.58-3.73l24.7-9.15l-26.2-16.62c-13.5-8.56-16.87-8.96-22.14-8.96
			c-0.23,0-0.44,0-0.63,0.01c-0.62,2.45-1.42,7.67-1.42,18.31C743.93,832.2,747.06,835.4,747.12,835.46L747.12,835.46z"/>
		<path d="M899.95,964.99c-49.66,0-82.28-3.93-102.05-24c-19.63-19.92-20.81-50.7-20.31-83.14l2.46-203.96l97.65,11.81l-0.01-3.07
			l129.54-5.93l2.07,174.82c0.42,51.57-9.31,85.56-30.63,107.05C955.17,962.25,922.49,964.99,899.95,964.99z"/>
		<polygon points="1012.25,956.42 1018.09,784.75 979.25,778.27 981.96,657.03 1188.4,663.41 1187.3,792.13 1150.71,788.54 
			1151.43,967.49 		"/>
		<polygon points="1161.99,959.99 1159.89,663.46 1355.67,656.99 1359.07,775.27 1344.25,775.91 1347.47,842.91 1354.58,843.3 
			1354.03,966.04 		"/>
		<path d="M246.57,1267.74c-102.3,0-110.43-69.18-110.43-159.61c0-85.11,8.02-150.21,108.98-150.21c34.43,0,61.06,5.18,86.35,16.78
			l13.69,6.28L333,1126.42l-2.32-1.47l12.77,123.78l-16.11,5.55C303.71,1262.41,285.33,1267.74,246.57,1267.74z M282.07,1136.4
			c0.01,0,1.01,0.53,3.92,0.53c7.47,0,10.67-0.79,18.58-3.73l24.7-9.15l-26.2-16.62c-13.5-8.56-16.87-8.96-22.14-8.96
			c-0.23,0-0.44,0-0.63,0.01c-0.62,2.45-1.42,7.67-1.42,18.31C278.88,1133.14,282.01,1136.35,282.07,1136.4L282.07,1136.4z"/>
		<path d="M314.68,1261.91l0.42-296.79l134.65-2.14l2.55-0.02c80.14,0,89.41,58.08,89.41,101.77c0,26.5-7.22,50.97-21.49,72.91
			l39.03,115.04l-116.65,13.22l-0.11,5.23L314.68,1261.91z"/>
		<polygon points="519.46,1260.93 517.36,964.4 713.15,957.94 716.55,1076.21 701.72,1076.85 704.95,1143.85 712.06,1144.25 
			711.5,1266.98 		"/>
		<polygon points="792.19,1265.66 681.9,1257.75 718.93,956.9 867.46,964.62 917.82,1260.59 793.21,1277.43 		"/>
		<polygon points="890.59,1257.37 896.44,1085.69 857.6,1079.22 860.3,957.98 1066.75,964.36 1065.65,1093.08 1029.05,1089.49 
			1029.78,1268.44 		"/>
		<path d="M1158.58,1265.93c-49.66,0-82.28-3.93-102.05-24c-19.62-19.92-20.8-50.69-20.31-83.14l2.46-203.96l97.65,11.81l-0.01-3.07
			l129.54-5.93l2.07,174.82c0.41,51.57-9.32,85.56-30.63,107.05C1213.8,1263.19,1181.11,1265.93,1158.58,1265.93z"/>
		<path d="M1241.15,1261.91l0.42-296.79l134.65-2.14l2.55-0.02c80.14,0,89.41,58.08,89.41,101.77c0,26.5-7.22,50.97-21.49,72.91
			l39.04,115.04l-116.66,13.22l-0.11,5.23L1241.15,1261.91z"/>
		<polygon points="1445.93,1260.93 1443.83,964.4 1639.62,957.94 1643.01,1076.21 1628.19,1076.85 1631.42,1143.85 1638.53,1144.25 
			1637.98,1266.98 		"/>
		<path d="M1714.53,1266.66c-28.48,0-68.54-6.46-93.83-20.91l-11.47-6.55l6.46-125.12l1.9,1.09c-4.12-14.04-5.9-30.85-5.9-51.16
			c0-89.29,35.14-105.01,108.98-105.01c33.24,0,63.4,5.55,89.63,16.48l14.91,6.22l-14.5,125.67c6.54,14.31,9.18,32.34,9.18,55.74
			C1819.9,1240.53,1793.31,1266.66,1714.53,1266.66z"/>
		<g>
			<path class="st1" d="M779.61,788.37c-14.83-9.4-22.42-12.29-33.63-12.29c-18.45,0-23.51,10.85-23.51,39.78
				c0,24.23,5.79,41.59,28.57,41.59c10.49,0,16.28-1.45,26.04-5.06l8.32,80.65c-22.06,7.6-38.34,12.29-73.78,12.29
				c-77.39,0-88.97-40.5-88.97-138.15c0-97.28,14.1-128.75,87.52-128.75c31.47,0,55.33,4.7,77.39,14.83L779.61,788.37z"/>
			<path class="st1" d="M899.95,943.53c-91.13,0-101.98-14.1-100.9-85.35l2.17-180.11l89.69,10.85l-2.17,168.89
				c0,12.66,1.09,17,5.42,17c4.34,0,5.78-3.62,5.78-17.72l-0.72-173.96l86.8-3.97l1.81,152.62
				C988.56,921.1,957.09,943.53,899.95,943.53z"/>
			<path class="st1" d="M1166.04,768.48l-36.89-3.62l0.73,179.39l-95.48-7.6l5.79-169.98l-39.06-6.51l1.81-81.01l163.83,5.06
				L1166.04,768.48z"/>
			<path class="st1" d="M1269.74,757.63l1.44,22.79l51.36-9.04l3.26,67.63l-50.63,5.78l-0.73,15.55l58.59,3.26l-0.36,80.29
				l-149.37-4.7l-1.81-254.97l153.34-5.06l2.17,75.58L1269.74,757.63z"/>
		</g>
		<g>
			<path class="st1" d="M314.57,1089.32c-14.83-9.4-22.42-12.29-33.63-12.29c-18.45,0-23.51,10.85-23.51,39.78
				c0,24.23,5.79,41.59,28.57,41.59c10.49,0,16.28-1.45,26.04-5.06l8.32,80.65c-22.06,7.6-38.34,12.29-73.78,12.29
				c-77.39,0-88.97-40.5-88.97-138.15c0-97.28,14.1-128.75,87.52-128.75c31.47,0,55.33,4.7,77.39,14.83L314.57,1089.32z"/>
			<path class="st1" d="M437.8,1244.83l-14.47-80.65l-1.81,83.9l-85.35-6.15l0.36-255.69l113.56-1.81
				c53.53-0.73,70.16,24.59,70.16,80.29c0,27.48-9.04,50.27-23.87,69.44l33.99,100.18L437.8,1244.83z M422.97,1046.28l0.36,57.51
				c8.68-1.81,12.65-6.15,12.65-31.46C435.99,1052.79,432.01,1047.01,422.97,1046.28z"/>
			<path class="st1" d="M627.22,1058.57l1.44,22.79l51.36-9.04l3.26,67.63l-50.63,5.78l-0.73,15.55l58.59,3.26l-0.36,80.29
				l-149.37-4.7l-1.81-254.97l153.34-5.06l2.17,75.58L627.22,1058.57z"/>
			<path class="st1" d="M812.65,1253.15l-3.26-37.62l-25.31,3.62l-2.53,24.23l-75.59-5.42l31.83-258.59l111.39,5.79l43.76,257.14
				L812.65,1253.15z M798.19,1093.66l-7.96,71.61l14.1-2.89L798.19,1093.66z"/>
			<path class="st1" d="M1044.39,1069.43l-36.89-3.62l0.73,179.39l-95.48-7.6l5.79-169.98l-39.06-6.51l1.81-81.01l163.83,5.06
				L1044.39,1069.43z"/>
			<path class="st1" d="M1158.58,1244.47c-91.14,0-101.99-14.1-100.91-85.35l2.17-180.11l89.69,10.85l-2.17,168.89
				c0,12.66,1.09,17,5.42,17s5.79-3.62,5.79-17.72l-0.73-173.96l86.8-3.97l1.81,152.62
				C1247.18,1222.05,1215.72,1244.47,1158.58,1244.47z"/>
			<path class="st1" d="M1364.27,1244.83l-14.47-80.65l-1.81,83.9l-85.35-6.15l0.36-255.69l113.56-1.81
				c53.53-0.73,70.16,24.59,70.16,80.29c0,27.48-9.05,50.27-23.87,69.44l34,100.18L1364.27,1244.83z M1349.44,1046.28l0.36,57.51
				c8.68-1.81,12.66-6.15,12.66-31.46C1362.46,1052.79,1358.48,1047.01,1349.44,1046.28z"/>
			<path class="st1" d="M1553.69,1058.57l1.45,22.79l51.36-9.04l3.25,67.63l-50.63,5.78l-0.73,15.55l58.59,3.26l-0.36,80.29
				l-149.37-4.7l-1.81-254.97l153.35-5.06l2.17,75.58L1553.69,1058.57z"/>
			<path class="st1" d="M1792.29,1079.91c-21.34-9.76-47.74-16.28-66.91-16.28c-11.21,0-13.38,1.09-13.38,5.43s1.81,5.42,21.7,10.85
				c52.08,14.47,64.74,30.38,64.74,83.18c0,64.74-15.55,82.1-83.9,82.1c-27.49,0-62.93-6.51-83.18-18.08l3.98-77.03
				c22.06,12.66,54.61,23.51,77.03,23.51c5.06,0,6.15-1.81,6.15-5.78c0-5.06-2.53-6.15-12.66-8.68
				c-57.51-14.47-72.7-33.27-72.7-95.12c0-70.52,18.45-83.54,87.52-83.54c32.55,0,59.68,5.78,81.38,14.83L1792.29,1079.91z"/>
		</g>
	</g>
</g>
<g id="Layer_2">
	<rect class="st2" width="2000" height="2000"/>
</g>
</svg>
